<svg aria-hidden="true" style="position: absolute; width: 0; height: 0; overflow: hidden;" version="1.1" xmlns="http://www.w3.org/2000/svg" xmlns:xlink="http://www.w3.org/1999/xlink">
<defs>
<symbol id="icon-Group-11-1" viewBox="0 0 51 32">
<path fill="#000" style="fill: var(--color1, #000)" d="M33.189 15.348l0.93 2.146c0.172 0.395 0.645 0.583 1.058 0.418 0.414-0.163 0.61-0.616 0.438-1.011l-0.93-2.145-1.496 0.592z"></path>
<path fill="#000" style="fill: var(--color1, #000)" d="M33.809 16.779v0z"></path>
<path fill="#000" style="fill: var(--color1, #000)" d="M31.227 10.82v0z"></path>
<path fill="#000" style="fill: var(--color1, #000)" d="M32.378 6.47c0 1.14-0.966 2.064-2.158 2.064-1.193 0-2.16-0.924-2.16-2.064s0.967-2.064 2.16-2.064c1.191 0 2.158 0.924 2.158 2.064z"></path>
<path fill="#000" style="fill: var(--color1, #000)" d="M31.299 6.47c0 0.57-0.483 1.033-1.079 1.033s-1.081-0.462-1.081-1.033c0-0.57 0.484-1.032 1.081-1.032s1.079 0.462 1.079 1.032z"></path>
<path fill="#000" style="fill: var(--color1, #000)" d="M28.706 7.942l-2.953 6.815-0.74 3.058 0.499 0.197 1.738-2.663 0.414-0.953c-0.323-0.745 0.047-1.6 0.826-1.908l1.712-3.954c-0.582-0.005-1.109-0.23-1.496-0.592z"></path>
<path fill="#000" style="fill: var(--color1, #000)" d="M31.733 7.941c-0.386 0.363-0.914 0.588-1.496 0.593l2.54 5.861 1.496-0.592-2.54-5.861z"></path>
<path fill="#000" style="fill: var(--color1, #000)" d="M31.029 3.374v-2.322c-0-0.428-0.364-0.774-0.81-0.774-0.447 0-0.81 0.346-0.81 0.774l0 2.322h1.619z"></path>
<path fill="#000" style="fill: var(--color1, #000)" d="M30.22 4.407c0.138 0 0.273 0.013 0.404 0.037v-1.069h-0.809v1.069c0.131-0.024 0.266-0.037 0.405-0.037z"></path>
<path fill="#000" style="fill: var(--color1, #000)" d="M18.979 18.866h-2.693v-18.589h2.693c0.595 0 1.077 0.463 1.077 1.033v16.524h-0c-0 0.57-0.482 1.032-1.077 1.032z"></path>
<path fill="#000" style="fill: var(--color1, #000)" d="M18.844 1.826c0.223 0 0.404-0.173 0.404-0.387s-0.181-0.387-0.404-0.387c-0.223 0-0.404 0.173-0.404 0.387s0.181 0.387 0.404 0.387z"></path>
<path fill="#000" style="fill: var(--color1, #000)" d="M21.941 11.251c0 0.213 0.181 0.387 0.404 0.387s0.404-0.174 0.404-0.387c0 0.213 0.181 0.387 0.404 0.387s0.404-0.174 0.404-0.387c0 0.213-0.181 0.387-0.404 0.387s-0.404-0.174-0.404-0.387c0 0.213-0.181 0.387-0.404 0.387s-0.404-0.174-0.404-0.387z"></path>
<path fill="#000" style="fill: var(--color1, #000)" d="M22.48 0.277c-0.297 0-0.539 0.232-0.539 0.517v-0 10.844l0.808 3.098 0.808-3.098v-10.844c0-0.285-0.241-0.517-0.539-0.517l-0.538-0z"></path>
<path fill="#000" style="fill: var(--color2, #000)" d="M49.856 22.84h-49.856v9.056h49.856v-9.056z"></path>
</symbol>
<symbol id="icon-Shape-2" viewBox="0 0 24 32">
<path fill="#fff" style="fill: var(--color3, #fff)" d="M12.504 0c-8.312 0-12.502 5.932-12.502 10.88 0 2.995 1.139 5.659 3.582 6.653 0.401 0.163 0.76 0.005 0.876-0.436 0.081-0.305 0.273-1.076 0.357-1.398 0.118-0.436 0.072-0.589-0.251-0.97-0.706-0.827-1.155-1.898-1.155-3.416 0-4.401 3.308-8.34 8.613-8.34 4.697 0 7.277 2.858 7.277 6.673 0 5.022-2.232 9.26-5.546 9.26-1.829 0-3.198-1.507-2.76-3.355 0.527-2.205 1.544-4.586 1.544-6.179 0-1.425-0.768-2.614-2.36-2.614-1.869 0-3.372 1.927-3.372 4.507 0 1.645 0.557 2.757 0.557 2.757s-1.915 8.074-2.25 9.489c-0.669 2.816-0.099 6.269-0.052 6.619 0.029 0.205 0.295 0.254 0.416 0.099 0.172-0.226 2.4-2.963 3.158-5.699 0.214-0.775 1.229-4.787 1.229-4.787 0.608 1.154 2.385 2.171 4.273 2.171 5.624 0 9.438-5.105 9.438-11.936 0-5.165-4.394-9.977-11.074-9.977v0z"></path>
</symbol>
<symbol id="icon-Shape-1" viewBox="0 0 32 32">
<path fill="#fff" style="fill: var(--color3, #fff)" d="M29.619 30.421h-27.238c-1.306 0-2.363-0.926-2.363-2.069v-24.701c0-1.141 1.058-2.067 2.363-2.067h27.238c1.304 0 2.362 0.926 2.362 2.067v24.701c0 1.142-1.058 2.069-2.362 2.069v0zM5.557 25.67h4.707v-13.019h-4.707v13.019zM7.942 6.376c-1.611 0-2.662 0.971-2.662 2.25 0 1.248 1.021 2.25 2.6 2.25h0.030c1.642 0 2.662-1.002 2.662-2.25-0.029-1.278-1.021-2.25-2.63-2.25v0zM27.237 18.206c0-4-2.323-5.861-5.419-5.861-2.499 0-3.616 1.262-4.242 2.15v-1.845h-4.707c0.062 1.222 0 13.019 0 13.019h4.707v-7.27c0-0.387 0.030-0.778 0.155-1.054 0.339-0.778 1.115-1.582 2.414-1.582 1.704 0 2.384 1.194 2.384 2.944v6.963h4.707v-7.464zM17.544 14.539c0.010-0.014 0.022-0.029 0.032-0.043v0.043h-0.032z"></path>
</symbol>
<symbol id="icon-Shape" viewBox="0 0 17 32">
<path fill="#fff" style="fill: var(--color3, #fff)" d="M10.336 31.988h-6.89v-15.99h-3.444v-5.512h3.444v-3.308c0-4.495 1.945-7.171 7.466-7.171h4.598v5.512h-2.872c-2.152 0-2.294 0.771-2.294 2.21l-0.008 2.757h5.208l-0.61 5.512h-4.598v15.99z"></path>
</symbol>
<symbol id="icon-Vector-1" viewBox="0 0 47 32">
<path fill="none" stroke="#fff"  stroke-linejoin="miter" stroke-linecap="butt" stroke-miterlimit="4" stroke-width="2.3273" d="M23.678 17.925l-0-0-0.013 0.009c-0.081 0.055-0.198 0.094-0.325 0.094h-0.010c-0.185 0-0.303-0.063-0.342-0.095l-0.002-0.002-19.788-16.767h40.25l-19.771 16.761zM26.413 21.236l0.003-0.002 2.775-2.355 14.477 11.958h-40.807l14.509-12.047 2.891 2.451c0.852 0.717 1.947 1.096 3.076 1.096s2.223-0.381 3.076-1.101zM14.051 15.975l-12.887 10.702v-21.622l12.887 10.92zM45.382 5.146v21.547l-12.868-10.631 12.868-10.916z"></path>
</symbol>
<symbol id="icon-Vector" viewBox="0 0 22 32">
<path fill="none" stroke="#fff" style="stroke: var(--color3, #fff)" stroke-linejoin="miter" stroke-linecap="butt" stroke-miterlimit="4" stroke-width="2" d="M3.016 18.498l0.011 0.016 7.973 11.709 7.995-11.74c1.478-2.003 2.15-4.725 1.979-7.438s-1.176-5.305-2.909-7.068c-3.904-3.97-10.226-3.97-14.13 0l-0.919 14.521zM3.016 18.498l-0.011-0.015M3.016 18.498l-0.011-0.015M3.005 18.483c-1.478-2.003-2.15-4.725-1.979-7.438M3.005 18.483l-1.979-7.438M1.026 11.045c0.17-2.713 1.176-5.305 2.909-7.068l-2.909 7.068zM6.476 11.077c0 2.576 2.057 4.692 4.631 4.692s4.631-2.117 4.631-4.692c0-2.576-2.057-4.692-4.631-4.692s-4.631 2.117-4.631 4.692z"></path>
</symbol>
<symbol id="icon-Group" viewBox="0 0 34 32">
<path fill="none" stroke="#fff" style="stroke: var(--color3, #fff)" stroke-linejoin="miter" stroke-linecap="butt" stroke-miterlimit="4" stroke-width="2" d="M26.318 30.375l-0.020 0.020-0.019 0.021c-0.101 0.113-0.255 0.232-0.488 0.344l-0 0c-0.232 0.112-0.443 0.178-0.635 0.21-0.065 0.004-0.136 0.012-0.19 0.017l-0.010 0.001c-0 0-0 0-0 0-0.067 0.007-0.177 0.012-0.341 0.012-0.347 0-0.977-0.063-1.934-0.209-0.85-0.13-1.942-0.46-3.293-1.020h-0c-1.315-0.545-2.835-1.376-4.565-2.506h-0c-1.687-1.103-3.508-2.635-5.463-4.612h0l-0.009-0.009c-1.553-1.531-2.826-2.981-3.827-4.352-1.018-1.395-1.826-2.669-2.43-3.823l-0-0c-0.614-1.174-1.063-2.216-1.358-3.131-0.307-0.953-0.506-1.748-0.608-2.393-0.109-0.686-0.142-1.164-0.125-1.466 0.016-0.289 0.028-0.513 0.033-0.64 0.032-0.189 0.098-0.396 0.208-0.624 0.113-0.233 0.232-0.387 0.345-0.488l0.020-0.018 4.527-4.527c0.149-0.149 0.264-0.182 0.378-0.182 0.087 0 0.134 0.020 0.18 0.054 0.117 0.088 0.221 0.197 0.313 0.334l3.619 6.865c0.077 0.137 0.106 0.283 0.063 0.49-0.053 0.251-0.156 0.435-0.305 0.584l-1.661 1.661c-0.205 0.205-0.306 0.449-0.36 0.611-0.051 0.152-0.102 0.351-0.102 0.57v0.094l0.018 0.093c0.114 0.599 0.359 1.233 0.701 1.894 0.305 0.609 0.757 1.318 1.336 2.116 0.609 0.84 1.451 1.78 2.509 2.815 1.036 1.059 1.98 1.906 2.83 2.525l0 0c0.81 0.59 1.519 1.048 2.117 1.353 0.545 0.278 1.054 0.496 1.479 0.581 0 0 0 0 0.001 0l0.52 0.104h0.099c0.224 0 0.435-0.068 0.536-0.102l0.001-0c0.161-0.054 0.405-0.154 0.611-0.36l0.006-0.006 1.905-1.939c0.218-0.186 0.451-0.271 0.737-0.271 0.281 0 0.386 0.052 0.401 0.061l0.238 0.143h0.038l6.297 3.72c0.263 0.165 0.348 0.311 0.379 0.429 0.016 0.18-0.031 0.319-0.193 0.482-0 0-0.001 0.001-0.001 0.001l-4.506 4.472z"></path>
</symbol>
<symbol id="icon-ico-shape-1" viewBox="0 0 64 32">
<path d="M64 16c0-0.982-0.796-1.778-1.778-1.778h-56.889c-0.982 0-1.778 0.796-1.778 1.778s0.796 1.778 1.778 1.778h56.889c0.982 0 1.778-0.796 1.778-1.778z"></path>
<path d="M19.035 2.298c-0.694-0.694-1.82-0.694-2.514 0l-13.702 13.702 13.702 13.701c0.694 0.694 1.82 0.694 2.514 0s0.694-1.82 0-2.514l-11.187-11.187 11.187-11.187c0.694-0.694 0.694-1.82 0-2.514z"></path>
</symbol>
<symbol id="icon-ico-shape" viewBox="0 0 64 32">
<path d="M0 16c0-0.982 0.796-1.778 1.778-1.778h56.889c0.982 0 1.778 0.796 1.778 1.778s-0.796 1.778-1.778 1.778h-56.889c-0.982 0-1.778-0.796-1.778-1.778z"></path>
<path d="M44.965 2.298c0.694-0.694 1.82-0.694 2.514 0l13.701 13.702-13.701 13.701c-0.694 0.694-1.82 0.694-2.514 0s-0.694-1.82 0-2.514l11.188-11.187-11.188-11.187c-0.694-0.694-0.694-1.82 0-2.514z"></path>
</symbol>
<symbol id="icon-Line-3" viewBox="0 0 33 32">
<path fill="none" stroke="#e0e0e0" style="stroke: var(--color4, #e0e0e0)" stroke-linejoin="miter" stroke-linecap="butt" stroke-miterlimit="4" stroke-width="1.9394" d="mNaNclNaNNaNclNaNNaNNaNNaNclNaNNaNclNaNNaN"></path>
</symbol>
<symbol id="icon-Group-11" viewBox="0 0 51 32">
<path fill="#333" style="fill: var(--color1, #333)" d="M33.189 15.348l0.93 2.146c0.172 0.395 0.645 0.583 1.058 0.418 0.414-0.163 0.61-0.616 0.438-1.011l-0.93-2.145-1.496 0.592z"></path>
<path fill="#333" style="fill: var(--color1, #333)" d="M33.809 16.779v0z"></path>
<path fill="#333" style="fill: var(--color1, #333)" d="M31.227 10.82v0z"></path>
<path fill="#333" style="fill: var(--color1, #333)" d="M32.378 6.47c0 1.14-0.966 2.064-2.158 2.064-1.193 0-2.16-0.924-2.16-2.064s0.967-2.064 2.16-2.064c1.191 0 2.158 0.924 2.158 2.064z"></path>
<path fill="#333" style="fill: var(--color1, #333)" d="M31.299 6.47c0 0.57-0.483 1.033-1.079 1.033s-1.081-0.462-1.081-1.033c0-0.57 0.484-1.032 1.081-1.032s1.079 0.462 1.079 1.032z"></path>
<path fill="#333" style="fill: var(--color1, #333)" d="M28.706 7.942l-2.953 6.815-0.74 3.058 0.499 0.197 1.738-2.663 0.414-0.953c-0.323-0.745 0.047-1.6 0.826-1.908l1.712-3.954c-0.582-0.005-1.109-0.23-1.496-0.592z"></path>
<path fill="#333" style="fill: var(--color1, #333)" d="M31.733 7.941c-0.386 0.363-0.914 0.588-1.496 0.593l2.54 5.861 1.496-0.592-2.54-5.861z"></path>
<path fill="#333" style="fill: var(--color1, #333)" d="M31.029 3.374v-2.322c-0-0.428-0.364-0.774-0.81-0.774-0.447 0-0.81 0.346-0.81 0.774l0 2.322h1.619z"></path>
<path fill="#333" style="fill: var(--color1, #333)" d="M30.22 4.407c0.138 0 0.273 0.013 0.404 0.037v-1.069h-0.809v1.069c0.131-0.024 0.266-0.037 0.405-0.037z"></path>
<path fill="#333" style="fill: var(--color1, #333)" d="M18.979 18.866h-2.693v-18.589h2.693c0.595 0 1.077 0.463 1.077 1.033v16.524h-0c-0 0.57-0.482 1.032-1.077 1.032z"></path>
<path fill="#333" style="fill: var(--color1, #333)" d="M18.844 1.826c0.223 0 0.404-0.173 0.404-0.387s-0.181-0.387-0.404-0.387c-0.223 0-0.404 0.173-0.404 0.387s0.181 0.387 0.404 0.387z"></path>
<path fill="#333" style="fill: var(--color1, #333)" d="M21.941 11.251c0 0.213 0.181 0.387 0.404 0.387s0.404-0.174 0.404-0.387c0 0.213 0.181 0.387 0.404 0.387s0.404-0.174 0.404-0.387c0 0.213-0.181 0.387-0.404 0.387s-0.404-0.174-0.404-0.387c0 0.213-0.181 0.387-0.404 0.387s-0.404-0.174-0.404-0.387z"></path>
<path fill="#333" style="fill: var(--color1, #333)" d="M22.48 0.277c-0.297 0-0.539 0.232-0.539 0.517v-0 10.844l0.808 3.098 0.808-3.098v-10.844c0-0.285-0.241-0.517-0.539-0.517l-0.538-0z"></path>
<path fill="#000" style="fill: var(--color2, #000)" d="M49.856 22.84h-49.856v9.056h49.856v-9.056z"></path>
</symbol>
<symbol id="icon-location" viewBox="0 0 32 32">
<path d="M16 0c-5.523 0-10 4.477-10 10 0 10 10 22 10 22s10-12 10-22c0-5.523-4.477-10-10-10zM16 16c-3.314 0-6-2.686-6-6s2.686-6 6-6 6 2.686 6 6-2.686 6-6 6z"></path>
</symbol>
<symbol id="icon-Shape-4" viewBox="0 0 41 32">
<path fill="#fff" style="fill: var(--color1, #fff)" d="M39.544 3.569c-1.455 0.606-3.019 1.011-4.659 1.195 1.675-0.941 2.961-2.432 3.567-4.205-1.57 0.87-3.305 1.502-5.154 1.845-1.478-1.48-3.588-2.402-5.92-2.402-4.48 0-8.115 3.405-8.115 7.603 0 0.597 0.072 1.178 0.211 1.734-6.743-0.318-12.721-3.345-16.723-7.944-0.698 1.124-1.097 2.428-1.097 3.823 0 2.635 1.432 4.966 3.608 6.328-1.329-0.041-2.579-0.382-3.674-0.952 0 0.034 0 0.062 0 0.098 0 3.684 2.795 6.756 6.507 7.454-0.68 0.173-1.399 0.264-2.136 0.264-0.523 0-1.032-0.045-1.527-0.132 1.032 3.017 4.028 5.218 7.578 5.28-2.776 2.039-6.274 3.253-10.076 3.253-0.655 0-1.301-0.036-1.935-0.105 3.59 2.155 7.855 3.416 12.437 3.416 14.923 0 23.083-11.588 23.083-21.634 0-0.331-0.009-0.657-0.024-0.984 1.585-1.073 2.961-2.411 4.049-3.934v0z"></path>
</symbol>
<symbol id="icon-logo" viewBox="0 0 34 32">
<path d="M29.089 25.974l1.574 3.631c0.291 0.669 1.092 0.986 1.79 0.708 0.7-0.275 1.032-1.042 0.742-1.711l-1.573-3.63-2.532 1.002z"></path>
<path d="M30.139 28.395v0z"></path>
<path d="M25.769 18.31v0z"></path>
<path d="M27.717 10.949c0 1.93-1.635 3.493-3.652 3.493-2.019 0-3.655-1.564-3.655-3.493s1.636-3.492 3.655-3.492c2.016 0 3.652 1.563 3.652 3.492z"></path>
<path d="M25.89 10.95c0 0.965-0.817 1.747-1.825 1.747-1.009 0-1.829-0.782-1.829-1.747s0.819-1.747 1.829-1.747c1.008-0 1.825 0.782 1.825 1.747z"></path>
<path d="M21.502 13.44l-4.998 11.533-1.253 5.175 0.844 0.334 2.942-4.507 0.7-1.613c-0.546-1.261 0.079-2.707 1.398-3.228l2.898-6.691c-0.986-0.008-1.878-0.389-2.531-1.002z"></path>
<path d="M26.625 13.439c-0.654 0.615-1.546 0.995-2.532 1.003l4.299 9.918 2.531-1.002-4.298-9.919z"></path>
<path d="M25.434 5.71v-3.93c-0-0.724-0.616-1.31-1.37-1.31-0.757 0-1.37 0.585-1.37 1.31l0 3.93h2.74z"></path>
<path d="M24.065 7.457c0.233 0 0.462 0.022 0.684 0.063v-1.809h-1.37v1.809c0.222-0.041 0.45-0.063 0.686-0.063z"></path>
<path d="M5.041 31.927h-4.557v-31.458h4.558c1.007 0 1.823 0.783 1.823 1.748v27.963h-0c-0 0.965-0.816 1.747-1.823 1.747z"></path>
<path d="M4.814 3.091c0.378 0 0.684-0.293 0.684-0.656s-0.306-0.656-0.684-0.656c-0.378 0-0.684 0.293-0.684 0.656s0.306 0.656 0.684 0.656z"></path>
<path d="M10.055 19.040c0 0.361 0.306 0.655 0.684 0.655s0.684-0.295 0.684-0.655c0 0.361 0.307 0.655 0.684 0.655s0.684-0.295 0.684-0.655c0 0.361-0.306 0.655-0.684 0.655s-0.684-0.295-0.684-0.655c0 0.361-0.306 0.655-0.684 0.655s-0.684-0.295-0.684-0.655z"></path>
<path d="M10.967 0.469c-0.503 0-0.912 0.392-0.912 0.875v-0 18.351l1.367 5.243 1.368-5.243v-18.351c0-0.482-0.409-0.874-0.912-0.874l-0.911-0z"></path>
</symbol>
<symbol id="icon-phone" viewBox="0 0 32 32">
<path d="M22 20c-2 2-2 4-4 4s-4-2-6-4-4-4-4-6 2-2 4-4-4-8-6-8-6 6-6 6c0 4 4.109 12.109 8 16s12 8 16 8c0 0 6-4 6-6s-6-8-8-6z"></path>
</symbol>
<symbol id="icon-envelop" viewBox="0 0 32 32">
<path d="M29 4h-26c-1.65 0-3 1.35-3 3v20c0 1.65 1.35 3 3 3h26c1.65 0 3-1.35 3-3v-20c0-1.65-1.35-3-3-3zM12.461 17.199l-8.461 6.59v-15.676l8.461 9.086zM5.512 8h20.976l-10.488 7.875-10.488-7.875zM12.79 17.553l3.21 3.447 3.21-3.447 6.58 8.447h-19.579l6.58-8.447zM19.539 17.199l8.461-9.086v15.676l-8.461-6.59z"></path>
</symbol>
<symbol id="icon-facebook" viewBox="0 0 32 32">
<path d="M19 6h5v-6h-5c-3.86 0-7 3.14-7 7v3h-4v6h4v16h6v-16h5l1-6h-6v-3c0-0.542 0.458-1 1-1z"></path>
</symbol>
<symbol id="icon-twitter" viewBox="0 0 32 32">
<path d="M32 7.075c-1.175 0.525-2.444 0.875-3.769 1.031 1.356-0.813 2.394-2.1 2.887-3.631-1.269 0.75-2.675 1.3-4.169 1.594-1.2-1.275-2.906-2.069-4.794-2.069-3.625 0-6.563 2.938-6.563 6.563 0 0.512 0.056 1.012 0.169 1.494-5.456-0.275-10.294-2.888-13.531-6.862-0.563 0.969-0.887 2.1-0.887 3.3 0 2.275 1.156 4.287 2.919 5.463-1.075-0.031-2.087-0.331-2.975-0.819 0 0.025 0 0.056 0 0.081 0 3.181 2.263 5.838 5.269 6.437-0.55 0.15-1.131 0.231-1.731 0.231-0.425 0-0.831-0.044-1.237-0.119 0.838 2.606 3.263 4.506 6.131 4.563-2.25 1.762-5.075 2.813-8.156 2.813-0.531 0-1.050-0.031-1.569-0.094 2.913 1.869 6.362 2.95 10.069 2.95 12.075 0 18.681-10.006 18.681-18.681 0-0.287-0.006-0.569-0.019-0.85 1.281-0.919 2.394-2.075 3.275-3.394z"></path>
</symbol>
<symbol id="icon-linkedin" viewBox="0 0 32 32">
<path d="M29 0h-26c-1.65 0-3 1.35-3 3v26c0 1.65 1.35 3 3 3h26c1.65 0 3-1.35 3-3v-26c0-1.65-1.35-3-3-3zM12 26h-4v-14h4v14zM10 10c-1.106 0-2-0.894-2-2s0.894-2 2-2c1.106 0 2 0.894 2 2s-0.894 2-2 2zM26 26h-4v-8c0-1.106-0.894-2-2-2s-2 0.894-2 2v8h-4v-14h4v2.481c0.825-1.131 2.087-2.481 3.5-2.481 2.488 0 4.5 2.238 4.5 5v9z"></path>
</symbol>
<symbol id="icon-pinterest" viewBox="0 0 32 32">
<path d="M16 2.138c-7.656 0-13.863 6.206-13.863 13.863 0 5.875 3.656 10.887 8.813 12.906-0.119-1.094-0.231-2.781 0.050-3.975 0.25-1.081 1.625-6.887 1.625-6.887s-0.412-0.831-0.412-2.056c0-1.925 1.119-3.369 2.506-3.369 1.181 0 1.756 0.887 1.756 1.95 0 1.188-0.756 2.969-1.15 4.613-0.331 1.381 0.688 2.506 2.050 2.506 2.462 0 4.356-2.6 4.356-6.35 0-3.319-2.387-5.638-5.787-5.638-3.944 0-6.256 2.956-6.256 6.019 0 1.194 0.456 2.469 1.031 3.163 0.113 0.137 0.131 0.256 0.094 0.4-0.106 0.438-0.338 1.381-0.387 1.575-0.063 0.256-0.2 0.306-0.463 0.188-1.731-0.806-2.813-3.337-2.813-5.369 0-4.375 3.175-8.387 9.156-8.387 4.806 0 8.544 3.425 8.544 8.006 0 4.775-3.012 8.625-7.194 8.625-1.406 0-2.725-0.731-3.175-1.594 0 0-0.694 2.644-0.863 3.294-0.313 1.206-1.156 2.712-1.725 3.631 1.3 0.4 2.675 0.619 4.106 0.619 7.656 0 13.863-6.206 13.863-13.863 0-7.662-6.206-13.869-13.863-13.869z"></path>
</symbol>
<svg xmlns="http://www.w3.org/2000/svg" width="69" height="42" viewBox="0 0 69 42" fill="none">
  <g clip-path="url(#clip0_0_162)">
    <path d="M44.6348 21.1039L45.9133 24.0542C46.1496 24.598 46.8002 24.8552 47.3678 24.6293C47.9364 24.4057 48.206 23.783 47.9704 23.2389L46.6922 20.2896L44.6348 21.1039Z" fill="#333333"/>
    <path d="M45.4877 23.0706L47.5447 22.2561L45.4877 23.0706Z" fill="#333333"/>
    <path d="M41.9372 14.877L44.8465 16.0287L41.9372 14.877Z" fill="#333333"/>
    <path d="M43.5203 8.89645C43.5203 10.4642 42.1915 11.7349 40.5531 11.7349C38.9129 11.7349 37.5838 10.4642 37.5838 8.89645C37.5838 7.32897 38.9129 6.05896 40.5531 6.05896C42.1912 6.05896 43.5203 7.32897 43.5203 8.89645Z" fill="#333333"/>
    <path d="M42.0359 8.89649C42.0359 9.68086 41.3719 10.3163 40.5527 10.3163C39.7325 10.3163 39.067 9.68086 39.067 8.89649C39.067 8.11278 39.7325 7.4773 40.5527 7.4773C41.3719 7.47694 42.0359 8.11278 42.0359 8.89649Z" fill="#333333"/>
    <path d="M38.4707 10.9196L34.41 20.2899L33.3921 24.4949L34.0777 24.7664L36.4677 21.1043L37.0363 19.7937C36.5926 18.769 37.1009 17.5942 38.1724 17.1706L40.5271 11.734C39.7262 11.7276 39.0016 11.4183 38.4707 10.9196Z" fill="#333333"/>
    <path d="M42.6331 10.9189C42.1018 11.4183 41.3766 11.7276 40.5757 11.7337L44.0686 19.7921L46.125 18.9781L42.6331 10.9189Z" fill="#333333"/>
    <path d="M41.6653 4.63947V1.44605C41.6649 0.85753 41.165 0.38147 40.5521 0.38147C39.9372 0.38147 39.439 0.856886 39.4386 1.44605L39.439 4.63947H41.6653Z" fill="#333333"/>
    <path d="M40.5527 6.05899C40.7424 6.05899 40.9284 6.07721 41.1083 6.10982V4.63977H39.9955V6.10982C40.1762 6.07689 40.3611 6.05899 40.5527 6.05899Z" fill="#333333"/>
    <path d="M25.0957 25.9407H21.3929V0.380859H25.0963C25.9146 0.380859 26.5774 1.01699 26.5774 1.80136V24.5214H26.5771C26.5768 25.3058 25.9139 25.9407 25.0957 25.9407Z" fill="#333333"/>
    <path d="M24.911 2.51126C25.2179 2.51126 25.4667 2.27281 25.4667 1.97865C25.4667 1.6845 25.2179 1.44604 24.911 1.44604C24.6042 1.44604 24.3555 1.6845 24.3555 1.97865C24.3555 2.27281 24.6042 2.51126 24.911 2.51126Z" fill="#333333"/>
    <path d="M29.1694 15.4696C29.1694 15.7626 29.4184 16.0019 29.725 16.0019C30.032 16.0019 30.2806 15.7626 30.2806 15.4696C30.2806 15.7626 30.5299 16.0019 30.8362 16.0019C31.1431 16.0019 31.3917 15.7626 31.3917 15.4696C31.3917 15.7626 31.1431 16.0019 30.8362 16.0019C30.5299 16.0019 30.2806 15.7626 30.2806 15.4696C30.2806 15.7626 30.032 16.0019 29.725 16.0019C29.4184 16.0019 29.1694 15.7626 29.1694 15.4696Z" fill="#333333"/>
    <path d="M29.9103 0.380859C29.5017 0.380859 29.1694 0.699402 29.1694 1.09175V1.09143V16.0016L30.2802 20.2615L31.3914 16.0016V1.09111V1.09143C31.3914 0.699722 31.0595 0.381179 30.6505 0.381179L29.9103 0.380859Z" fill="#333333"/>
  </g>
  <defs>
    <clipPath id="clip0_0_162">
      <rect width="68.5517" height="41.5272" fill="white" transform="translate(0.448242 0.142822)"/>
    </clipPath>
  </defs>
</svg>
</defs>
</svg>
